<svg width="93" height="93" viewBox="0 0 93 93" fill="none" xmlns="http://www.w3.org/2000/svg">
<path d="M66.5423 41.6767L52.9622 33.8096L39.4758 26.0362C38.1646 25.287 36.6661 25.0997 35.3549 25.4743C34.0438 25.8489 32.8262 26.6918 32.077 28.003C31.796 28.3776 31.7024 28.8459 31.5151 29.3142C31.4214 29.5951 31.4214 29.9698 31.3278 30.3444C31.3278 30.438 31.3278 30.6254 31.3278 30.719V46.6405V62.5619C31.3278 64.0604 31.9833 65.4652 32.9199 66.4018C33.9501 67.432 35.2613 67.9939 36.7598 67.9939C37.6027 67.9939 39.3821 67.2447 39.8504 66.9637L53.1495 59.284H53.2432L53.3368 59.1903L67.1042 51.2296C68.4154 50.4803 69.2583 49.2628 69.6329 47.858C69.7266 47.577 69.7265 47.2024 69.7265 46.8278C69.7265 43.7371 66.5423 41.6767 66.5423 41.6767ZM64.6692 47.2024L51.0891 55.0695C50.9954 55.0695 50.9018 55.1631 50.9018 55.1631L37.6027 62.8429C37.509 62.9365 37.0407 63.1238 36.8534 63.1238C36.6661 63.1238 36.4788 63.0302 36.2915 62.9365C36.1978 62.8429 36.1042 62.5619 36.1042 62.3746V46.5468V30.719V30.6254C36.1042 30.5317 36.1042 30.5317 36.1042 30.438C36.1042 30.438 36.1042 30.3444 36.1979 30.3444C36.1979 30.3444 36.2915 30.2507 36.2915 30.1571C36.3852 30.0634 36.5725 29.9698 36.6661 29.8761C36.8534 29.8761 37.0408 29.8761 37.1344 29.8761C37.2281 29.9698 37.3217 29.9698 37.4154 30.0634L50.7145 37.7432C50.8081 37.8368 50.9018 37.8368 50.9018 37.8368H50.9954L64.5755 45.7039C64.7628 45.7976 65.1374 46.0785 65.1374 46.3595C65.1374 46.7341 64.8565 47.1087 64.6692 47.2024Z" fill="white"/>
<path d="M79.3731 13.6737C70.3821 4.58912 58.4879 0 46.5936 0C34.6994 0 22.8051 4.49547 13.7205 13.5801C4.63594 22.7583 0.046814 34.6526 0.046814 46.5468C0.046814 58.4411 4.54228 70.3354 13.6269 79.4199C22.7115 88.5045 34.6057 93 46.5 93C58.3942 93 70.2885 88.5045 79.3731 79.4199C88.4577 70.3354 92.9531 58.4411 92.9531 46.5468C92.9531 34.6526 88.4577 22.7583 79.3731 13.6737ZM76.0951 76.0483C67.9471 84.1964 57.2704 88.3172 46.5936 88.3172C35.9169 88.3172 25.2402 84.1964 17.0921 76.0483C8.85044 67.9003 4.82325 57.2236 4.82325 46.5468C4.82325 35.8701 8.94409 25.1934 17.0921 17.0453C25.2402 8.89728 35.9169 4.77643 46.5936 4.77643C57.2704 4.77643 67.9471 8.89728 76.0951 17.0453C84.2432 25.1934 88.364 35.8701 88.364 46.5468C88.364 57.2236 84.3368 67.9003 76.0951 76.0483Z" fill="white"/>
</svg>
